<?xml version="1.0" encoding="utf-8"?>
<!-- Generator: Adobe Illustrator 16.0.4, SVG Export Plug-In . SVG Version: 6.00 Build 0)  -->
<!DOCTYPE svg PUBLIC "-//W3C//DTD SVG 1.1//EN" "http://www.w3.org/Graphics/SVG/1.1/DTD/svg11.dtd">
<svg version="1.1" id="Layer_1" xmlns="http://www.w3.org/2000/svg" xmlns:xlink="http://www.w3.org/1999/xlink" x="0px" y="0px"
	 width="19.665px" height="19.665px" viewBox="0 0 19.665 19.665" enable-background="new 0 0 19.665 19.665" xml:space="preserve">
<path id="LinkedIn__x28_alt_x29_" fill="#62C2A3" d="M18.165,0.059H1.503c-0.798,0-1.445,0.627-1.445,1.4v16.747
	c0,0.772,0.647,1.399,1.445,1.399h16.662c0.797,0,1.441-0.627,1.441-1.399V1.458C19.607,0.686,18.959,0.059,18.165,0.059z"/>
<path id="Behance_1_" fill="#FFFFFF" d="M16.122,6.351h-3.908V5.38h3.908V6.351z M9.608,10.333c0.251,0.392,0.378,0.863,0.378,1.424
	c0,0.574-0.141,1.094-0.43,1.549c-0.186,0.303-0.414,0.558-0.687,0.763c-0.311,0.238-0.676,0.401-1.098,0.487
	C7.35,14.642,6.893,14.687,6.4,14.687H2.03v-9.71h4.689C7.903,4.998,8.741,5.338,9.234,6.01c0.297,0.412,0.444,0.908,0.444,1.481
	c0,0.595-0.149,1.07-0.451,1.431C9.062,9.126,8.814,9.308,8.491,9.475C8.984,9.656,9.358,9.942,9.608,10.333z M4.269,8.805h2.054
	c0.421,0,0.766-0.082,1.025-0.241c0.263-0.16,0.396-0.445,0.396-0.853c0-0.453-0.175-0.752-0.522-0.896
	c-0.299-0.1-0.682-0.151-1.148-0.151H4.269V8.805z M7.942,11.618c0-0.507-0.206-0.854-0.618-1.041
	c-0.23-0.107-0.553-0.162-0.969-0.164H4.269V13h2.052c0.422,0,0.748-0.057,0.984-0.17C7.729,12.62,7.942,12.217,7.942,11.618z
	 M17.575,10.038c0.047,0.318,0.067,0.779,0.062,1.38H12.57c0.027,0.699,0.271,1.191,0.731,1.467c0.273,0.176,0.609,0.264,1,0.264
	c0.414,0,0.75-0.104,1.012-0.318c0.143-0.111,0.266-0.275,0.373-0.479h1.85c-0.047,0.413-0.271,0.831-0.672,1.257
	c-0.621,0.678-1.492,1.02-2.615,1.02c-0.928,0-1.742-0.289-2.453-0.858c-0.705-0.571-1.061-1.5-1.061-2.784
	c0-1.208,0.32-2.13,0.956-2.774c0.642-0.643,1.47-0.964,2.489-0.964c0.607,0,1.15,0.109,1.637,0.327
	c0.48,0.218,0.887,0.56,1.197,1.028C17.299,9.013,17.489,9.492,17.575,10.038z M15.745,10.219c-0.031-0.483-0.193-0.851-0.483-1.1
	c-0.289-0.25-0.65-0.377-1.077-0.377c-0.469,0-0.827,0.134-1.085,0.398c-0.259,0.263-0.418,0.623-0.479,1.077h3.127L15.745,10.219
	L15.745,10.219z"/>
</svg>
