<?xml version="1.0" encoding="utf-8"?>
<!-- Generator: Adobe Illustrator 16.0.4, SVG Export Plug-In . SVG Version: 6.00 Build 0)  -->
<!DOCTYPE svg PUBLIC "-//W3C//DTD SVG 1.1//EN" "http://www.w3.org/Graphics/SVG/1.1/DTD/svg11.dtd">
<svg version="1.1" id="Layer_1" xmlns="http://www.w3.org/2000/svg" xmlns:xlink="http://www.w3.org/1999/xlink" x="0px" y="0px"
	 width="19.665px" height="19.665px" viewBox="0 0 19.665 19.665" enable-background="new 0 0 19.665 19.665" xml:space="preserve">
<path id="Facebook__x28_alt_x29__1_" fill="#62C2A3" d="M19.665,3.277C19.665,1.555,18.109,0,16.388,0H3.278
	C1.555,0,0,1.556,0,3.277v13.11c0,1.723,1.555,3.277,3.278,3.277h6.555v-7.43H7.428V8.958h2.404V7.681
	c0-2.202,1.652-4.187,3.688-4.187h2.648v3.278H13.52c-0.291,0-0.629,0.353-0.629,0.879v1.306h3.277v3.278h-3.277v7.429h3.497
	c1.722,0,3.276-1.555,3.276-3.276V3.277z"/>
<path id="Facebook__x28_alt_x29__4_" fill="#FFFFFF" d="M9.833,19.665v-7.43H7.429V8.958h2.403V7.681
	c0-2.202,1.653-4.187,3.687-4.187h2.649v3.278h-2.649c-0.289,0-0.628,0.353-0.628,0.879v1.306h3.277v3.277h-3.276v7.43H9.833z"/>
</svg>
