<?xml version="1.0" encoding="utf-8"?>
<!-- Generator: Adobe Illustrator 16.0.4, SVG Export Plug-In . SVG Version: 6.00 Build 0)  -->
<!DOCTYPE svg PUBLIC "-//W3C//DTD SVG 1.1//EN" "http://www.w3.org/Graphics/SVG/1.1/DTD/svg11.dtd">
<svg version="1.1" id="Layer_1" xmlns="http://www.w3.org/2000/svg" xmlns:xlink="http://www.w3.org/1999/xlink" x="0px" y="0px"
	 width="19.665px" height="19.665px" viewBox="0 0 19.665 19.665" enable-background="new 0 0 19.665 19.665" xml:space="preserve">
<path id="LinkedIn__x28_alt_x29_" fill="#62C2A3" d="M18.163,0.059H1.502c-0.798,0-1.445,0.627-1.445,1.401v16.746
	c0,0.773,0.647,1.4,1.445,1.4h16.661c0.797,0,1.442-0.627,1.442-1.4V1.459C19.606,0.686,18.959,0.059,18.163,0.059z M5.983,16.422
	H3.031V7.596h2.952V16.422z M4.508,6.391h-0.02c-0.99,0-1.634-0.678-1.634-1.525c0-0.865,0.662-1.523,1.672-1.523
	c1.01,0,1.632,0.657,1.65,1.523C6.178,5.713,5.537,6.391,4.508,6.391z M16.631,16.422h-2.953V11.7c0-1.188-0.428-1.997-1.496-1.997
	c-0.816,0-1.301,0.545-1.516,1.074c-0.078,0.188-0.098,0.452-0.098,0.716v4.93H7.617c0,0,0.039-8,0-8.825h2.953v1.25
	c0.392-0.601,1.093-1.457,2.659-1.457c1.943,0,3.4,1.26,3.4,3.972v5.062h0.002V16.422z M10.551,8.874
	c0.006-0.008,0.012-0.018,0.02-0.027v0.027H10.551z"/>
<path id="LinkedIn__x28_alt_x29__1_" fill="#FFFFFF" d="M6.022,16.422H3.07V7.596h2.952V16.422z M4.547,6.389h-0.02
	c-0.992,0-1.633-0.676-1.633-1.524c0-0.866,0.66-1.524,1.668-1.524C5.577,3.34,6.197,4,6.215,4.865
	C6.217,5.713,5.578,6.389,4.547,6.389z M16.67,16.422h-2.951V11.7c0-1.188-0.43-1.996-1.496-1.996c-0.817,0-1.301,0.545-1.516,1.072
	c-0.08,0.188-0.101,0.451-0.101,0.717v4.93H7.656c0,0,0.039-8,0-8.825h2.952v1.25c0.395-0.601,1.094-1.459,2.662-1.459
	c1.943,0,3.398,1.262,3.398,3.974L16.67,16.422L16.67,16.422z M10.592,8.874c0.004-0.008,0.01-0.018,0.018-0.027v0.027H10.592z"/>
</svg>
