<?xml version="1.0" encoding="utf-8"?>
<!-- Generator: Adobe Illustrator 16.0.4, SVG Export Plug-In . SVG Version: 6.00 Build 0)  -->
<!DOCTYPE svg PUBLIC "-//W3C//DTD SVG 1.1//EN" "http://www.w3.org/Graphics/SVG/1.1/DTD/svg11.dtd">
<svg version="1.1" id="Layer_1" xmlns="http://www.w3.org/2000/svg" xmlns:xlink="http://www.w3.org/1999/xlink" x="0px" y="0px"
	 width="40px" height="40px" viewBox="0 0 40 40" enable-background="new 0 0 40 40" xml:space="preserve">
<rect width="40" height="40"/>
<g enable-background="new    ">
	<path fill="#FFFFFF" d="M6.23,10.166c1.388,2.174,2.768,4.342,4.141,6.507s2.753,4.333,4.141,6.507
		c1.388-2.174,2.768-4.342,4.141-6.507c1.373-2.165,2.753-4.333,4.14-6.507v20.055h-1.402V17.673v-1.753
		c0-0.182,0.004-0.352,0.012-0.507c0.008-0.155,0.019-0.315,0.033-0.479c-1.086,1.881-2.221,3.726-3.405,5.534
		c-1.185,1.808-2.357,3.634-3.519,5.479c-1.026-1.625-2.044-3.237-3.055-4.835c-1.011-1.598-2.029-3.21-3.055-4.836l-0.475-0.739
		c-0.061-0.091-0.117-0.192-0.17-0.302c-0.053-0.109-0.109-0.209-0.17-0.301c0.015,0.165,0.026,0.325,0.034,0.479
		c0.007,0.155,0.011,0.325,0.011,0.507v14.301H6.23V10.166z"/>
	<path fill="#FFFFFF" d="M36.596,30.221H35.17c-0.467-1.315-0.928-2.635-1.379-3.959c-0.453-1.324-0.914-2.644-1.381-3.959h-5.68
		c-0.452,1.315-0.908,2.635-1.369,3.959c-0.46,1.324-0.924,2.644-1.391,3.959h-1.403c1.177-3.36,2.345-6.703,3.507-10.027
		s2.331-6.667,3.508-10.027c1.176,3.361,2.346,6.703,3.507,10.027S35.42,26.86,36.596,30.221z M29.785,14.796
		c-0.03-0.146-0.064-0.288-0.102-0.425c-0.038-0.137-0.072-0.278-0.102-0.425c-0.303,1.151-0.656,2.284-1.064,3.397
		c-0.406,1.114-0.807,2.229-1.199,3.342h4.504c-0.348-0.986-0.688-1.968-1.019-2.945C30.472,16.765,30.133,15.783,29.785,14.796z"/>
</g>
</svg>
