<?xml version="1.0" encoding="utf-8"?>
<!-- Generator: Adobe Illustrator 16.0.4, SVG Export Plug-In . SVG Version: 6.00 Build 0)  -->
<!DOCTYPE svg PUBLIC "-//W3C//DTD SVG 1.1//EN" "http://www.w3.org/Graphics/SVG/1.1/DTD/svg11.dtd">
<svg version="1.1" id="Layer_1" xmlns="http://www.w3.org/2000/svg" xmlns:xlink="http://www.w3.org/1999/xlink" x="0px" y="0px"
	 width="19.665px" height="19.665px" viewBox="10.167 10.167 19.665 19.665" enable-background="new 10.167 10.167 19.665 19.665"
	 xml:space="preserve">
<path id="Facebook__x28_alt_x29__2_" fill="#4D4D4D" d="M19.999,29.831h-6.554c-1.723,0-3.277-1.556-3.277-3.278V13.445
	c0-1.723,1.555-3.277,3.277-3.277h13.109c1.723,0,3.277,1.555,3.277,3.277v13.108c0,1.723-1.555,3.278-3.277,3.278h-3.496H19.999z"
	/>
<path id="Twitter_1_" fill="#FFFFFF" d="M26.974,15.673c-0.513,0.228-1.064,0.382-1.644,0.451c0.592-0.354,1.044-0.915,1.258-1.583
	c-0.553,0.328-1.166,0.566-1.817,0.694c-0.521-0.556-1.266-0.903-2.089-0.903c-1.579,0-2.862,1.281-2.862,2.861
	c0,0.225,0.025,0.443,0.074,0.652c-2.378-0.119-4.487-1.259-5.898-2.99c-0.247,0.422-0.388,0.914-0.388,1.438
	c0,0.992,0.505,1.869,1.273,2.381c-0.468-0.015-0.91-0.143-1.295-0.357c-0.001,0.012-0.001,0.024-0.001,0.036
	c0,1.387,0.986,2.543,2.296,2.807c-0.24,0.065-0.493,0.101-0.754,0.101c-0.185,0-0.364-0.019-0.539-0.053
	c0.364,1.138,1.421,1.965,2.674,1.988c-0.98,0.768-2.213,1.226-3.554,1.226c-0.231,0-0.459-0.014-0.683-0.041
	c1.267,0.813,2.771,1.287,4.387,1.287c5.265,0,8.143-4.361,8.143-8.144c0-0.124-0.003-0.247-0.008-0.37
	C26.105,16.751,26.59,16.247,26.974,15.673z"/>
</svg>
